<svg id="Calendar_Icon" data-name="Calendar Icon" xmlns="http://www.w3.org/2000/svg" width="24" height="23" viewBox="0 0 24 23">
  <rect id="Rectangle_69" data-name="Rectangle 69" width="4" height="3" transform="translate(4 10)" fill="#d34618"/>
  <rect id="Rectangle_70" data-name="Rectangle 70" width="4" height="3" transform="translate(10 10)" fill="#d34618"/>
  <rect id="Rectangle_71" data-name="Rectangle 71" width="4" height="3" transform="translate(4 15)" fill="#d34618"/>
  <rect id="Rectangle_72" data-name="Rectangle 72" width="4" height="3" transform="translate(10 15)" fill="#d34618"/>
  <rect id="Rectangle_73" data-name="Rectangle 73" width="4" height="3" transform="translate(16 10)" fill="#d34618"/>
  <path id="Path_38" data-name="Path 38" d="M23,3H18V1a1,1,0,1,0-2,0V3H8V1A1,1,0,1,0,6,1V3H1A1,1,0,0,0,0,4V22a1,1,0,0,0,1,1H23a1,1,0,0,0,1-1V4A1,1,0,0,0,23,3ZM22,21H2V7H22Z" fill="#d34618"/>
</svg>
